<mxfile host="Electron" agent="Mozilla/5.0 (Macintosh; Intel Mac OS X 10_15_7) AppleWebKit/537.36 (KHTML, like Gecko) draw.io/26.2.15 Chrome/134.0.6998.205 Electron/35.2.1 Safari/537.36" version="26.2.15">
  <diagram name="Page-1" id="eFiWU51Lc9-S1sL4tIaq">
    <mxGraphModel dx="2061" dy="883" grid="1" gridSize="10" guides="1" tooltips="1" connect="1" arrows="1" fold="1" page="1" pageScale="1" pageWidth="827" pageHeight="1169" math="0" shadow="0">
      <root>
        <mxCell id="0" />
        <mxCell id="1" parent="0" />
        <mxCell id="fQKOkukqt4vZ22EfXZ8V-1" value="user" style="rounded=0;whiteSpace=wrap;html=1;" parent="1" vertex="1">
          <mxGeometry x="510" y="470" width="120" height="60" as="geometry" />
        </mxCell>
        <mxCell id="fQKOkukqt4vZ22EfXZ8V-2" value="userId" style="ellipse;whiteSpace=wrap;html=1;" parent="1" vertex="1">
          <mxGeometry x="370" y="440" width="75" height="50" as="geometry" />
        </mxCell>
        <mxCell id="fQKOkukqt4vZ22EfXZ8V-3" value="email" style="ellipse;whiteSpace=wrap;html=1;" parent="1" vertex="1">
          <mxGeometry x="670" y="440" width="75" height="50" as="geometry" />
        </mxCell>
        <mxCell id="fQKOkukqt4vZ22EfXZ8V-4" value="name" style="ellipse;whiteSpace=wrap;html=1;" parent="1" vertex="1">
          <mxGeometry x="650" y="370" width="75" height="50" as="geometry" />
        </mxCell>
        <mxCell id="fQKOkukqt4vZ22EfXZ8V-5" value="passwordHash" style="ellipse;whiteSpace=wrap;html=1;" parent="1" vertex="1">
          <mxGeometry x="670" y="500" width="90" height="60" as="geometry" />
        </mxCell>
        <mxCell id="fQKOkukqt4vZ22EfXZ8V-6" value="name" style="ellipse;whiteSpace=wrap;html=1;" parent="1" vertex="1">
          <mxGeometry x="425" y="370" width="75" height="50" as="geometry" />
        </mxCell>
        <mxCell id="fQKOkukqt4vZ22EfXZ8V-7" value="" style="endArrow=none;html=1;rounded=0;exitX=1;exitY=0;exitDx=0;exitDy=0;entryX=0;entryY=0.5;entryDx=0;entryDy=0;" parent="1" source="fQKOkukqt4vZ22EfXZ8V-1" target="fQKOkukqt4vZ22EfXZ8V-3" edge="1">
          <mxGeometry width="50" height="50" relative="1" as="geometry">
            <mxPoint x="710" y="630" as="sourcePoint" />
            <mxPoint x="760" y="580" as="targetPoint" />
          </mxGeometry>
        </mxCell>
        <mxCell id="fQKOkukqt4vZ22EfXZ8V-8" value="" style="endArrow=none;html=1;rounded=0;exitX=0;exitY=0.25;exitDx=0;exitDy=0;entryX=1;entryY=0.5;entryDx=0;entryDy=0;" parent="1" source="fQKOkukqt4vZ22EfXZ8V-1" target="fQKOkukqt4vZ22EfXZ8V-2" edge="1">
          <mxGeometry width="50" height="50" relative="1" as="geometry">
            <mxPoint x="630" y="480" as="sourcePoint" />
            <mxPoint x="680" y="475" as="targetPoint" />
          </mxGeometry>
        </mxCell>
        <mxCell id="fQKOkukqt4vZ22EfXZ8V-9" value="" style="endArrow=none;html=1;rounded=0;entryX=0.5;entryY=1;entryDx=0;entryDy=0;exitX=0.25;exitY=0;exitDx=0;exitDy=0;" parent="1" source="fQKOkukqt4vZ22EfXZ8V-1" target="fQKOkukqt4vZ22EfXZ8V-6" edge="1">
          <mxGeometry width="50" height="50" relative="1" as="geometry">
            <mxPoint x="640" y="490" as="sourcePoint" />
            <mxPoint x="690" y="485" as="targetPoint" />
          </mxGeometry>
        </mxCell>
        <mxCell id="fQKOkukqt4vZ22EfXZ8V-10" value="" style="endArrow=none;html=1;rounded=0;exitX=0;exitY=0.5;exitDx=0;exitDy=0;entryX=0.983;entryY=0.893;entryDx=0;entryDy=0;entryPerimeter=0;" parent="1" source="fQKOkukqt4vZ22EfXZ8V-5" target="fQKOkukqt4vZ22EfXZ8V-1" edge="1">
          <mxGeometry width="50" height="50" relative="1" as="geometry">
            <mxPoint x="650" y="500" as="sourcePoint" />
            <mxPoint x="700" y="495" as="targetPoint" />
          </mxGeometry>
        </mxCell>
        <mxCell id="fQKOkukqt4vZ22EfXZ8V-11" value="" style="endArrow=none;html=1;rounded=0;exitX=0.68;exitY=-0.01;exitDx=0;exitDy=0;entryX=0;entryY=1;entryDx=0;entryDy=0;exitPerimeter=0;" parent="1" source="fQKOkukqt4vZ22EfXZ8V-1" target="fQKOkukqt4vZ22EfXZ8V-4" edge="1">
          <mxGeometry width="50" height="50" relative="1" as="geometry">
            <mxPoint x="660" y="510" as="sourcePoint" />
            <mxPoint x="710" y="505" as="targetPoint" />
          </mxGeometry>
        </mxCell>
        <mxCell id="fQKOkukqt4vZ22EfXZ8V-12" value="performs&lt;div&gt;Reboot&lt;/div&gt;" style="rhombus;whiteSpace=wrap;html=1;" parent="1" vertex="1">
          <mxGeometry x="210" y="240" width="80" height="80" as="geometry" />
        </mxCell>
        <mxCell id="fQKOkukqt4vZ22EfXZ8V-13" value="rebootRequest" style="rounded=0;whiteSpace=wrap;html=1;" parent="1" vertex="1">
          <mxGeometry x="-10" y="185" width="120" height="60" as="geometry" />
        </mxCell>
        <mxCell id="fQKOkukqt4vZ22EfXZ8V-15" value="userId" style="ellipse;whiteSpace=wrap;html=1;" parent="1" vertex="1">
          <mxGeometry x="-85" y="80" width="75" height="50" as="geometry" />
        </mxCell>
        <mxCell id="fQKOkukqt4vZ22EfXZ8V-16" value="nodeId" style="ellipse;whiteSpace=wrap;html=1;" parent="1" vertex="1">
          <mxGeometry x="-110" y="150" width="75" height="50" as="geometry" />
        </mxCell>
        <mxCell id="fQKOkukqt4vZ22EfXZ8V-17" value="requestedAt" style="ellipse;whiteSpace=wrap;html=1;" parent="1" vertex="1">
          <mxGeometry x="-110" y="220" width="75" height="50" as="geometry" />
        </mxCell>
        <mxCell id="fQKOkukqt4vZ22EfXZ8V-18" value="apiResonse" style="ellipse;whiteSpace=wrap;html=1;" parent="1" vertex="1">
          <mxGeometry x="90" y="320" width="75" height="50" as="geometry" />
        </mxCell>
        <mxCell id="fQKOkukqt4vZ22EfXZ8V-19" value="reason" style="ellipse;whiteSpace=wrap;html=1;" parent="1" vertex="1">
          <mxGeometry x="-85" y="285" width="75" height="50" as="geometry" />
        </mxCell>
        <mxCell id="fQKOkukqt4vZ22EfXZ8V-20" value="status" style="ellipse;whiteSpace=wrap;html=1;" parent="1" vertex="1">
          <mxGeometry x="-5" y="320" width="75" height="50" as="geometry" />
        </mxCell>
        <mxCell id="fQKOkukqt4vZ22EfXZ8V-21" value="rebootId" style="ellipse;whiteSpace=wrap;html=1;" parent="1" vertex="1">
          <mxGeometry x="-10" y="50" width="75" height="50" as="geometry" />
        </mxCell>
        <mxCell id="fQKOkukqt4vZ22EfXZ8V-22" value="" style="endArrow=none;html=1;rounded=0;exitX=0.5;exitY=1;exitDx=0;exitDy=0;entryX=0.5;entryY=0;entryDx=0;entryDy=0;" parent="1" target="fQKOkukqt4vZ22EfXZ8V-13" edge="1">
          <mxGeometry width="50" height="50" relative="1" as="geometry">
            <mxPoint x="27.5" y="100" as="sourcePoint" />
            <mxPoint x="50" y="180" as="targetPoint" />
          </mxGeometry>
        </mxCell>
        <mxCell id="fQKOkukqt4vZ22EfXZ8V-23" value="" style="endArrow=none;html=1;rounded=0;exitX=1;exitY=1;exitDx=0;exitDy=0;entryX=0.25;entryY=0;entryDx=0;entryDy=0;" parent="1" source="fQKOkukqt4vZ22EfXZ8V-15" target="fQKOkukqt4vZ22EfXZ8V-13" edge="1">
          <mxGeometry width="50" height="50" relative="1" as="geometry">
            <mxPoint x="210" y="240" as="sourcePoint" />
            <mxPoint x="260" y="190" as="targetPoint" />
          </mxGeometry>
        </mxCell>
        <mxCell id="fQKOkukqt4vZ22EfXZ8V-24" value="" style="endArrow=none;html=1;rounded=0;exitX=1;exitY=0.5;exitDx=0;exitDy=0;entryX=0;entryY=0;entryDx=0;entryDy=0;" parent="1" source="fQKOkukqt4vZ22EfXZ8V-16" target="fQKOkukqt4vZ22EfXZ8V-13" edge="1">
          <mxGeometry width="50" height="50" relative="1" as="geometry">
            <mxPoint x="220" y="250" as="sourcePoint" />
            <mxPoint x="270" y="200" as="targetPoint" />
          </mxGeometry>
        </mxCell>
        <mxCell id="fQKOkukqt4vZ22EfXZ8V-25" value="" style="endArrow=none;html=1;rounded=0;exitX=1;exitY=0.5;exitDx=0;exitDy=0;entryX=0;entryY=0.5;entryDx=0;entryDy=0;" parent="1" source="fQKOkukqt4vZ22EfXZ8V-17" target="fQKOkukqt4vZ22EfXZ8V-13" edge="1">
          <mxGeometry width="50" height="50" relative="1" as="geometry">
            <mxPoint x="230" y="260" as="sourcePoint" />
            <mxPoint x="280" y="210" as="targetPoint" />
          </mxGeometry>
        </mxCell>
        <mxCell id="fQKOkukqt4vZ22EfXZ8V-26" value="" style="endArrow=none;html=1;rounded=0;exitX=1;exitY=0;exitDx=0;exitDy=0;entryX=0.25;entryY=1;entryDx=0;entryDy=0;" parent="1" source="fQKOkukqt4vZ22EfXZ8V-19" target="fQKOkukqt4vZ22EfXZ8V-13" edge="1">
          <mxGeometry width="50" height="50" relative="1" as="geometry">
            <mxPoint x="240" y="270" as="sourcePoint" />
            <mxPoint x="290" y="220" as="targetPoint" />
          </mxGeometry>
        </mxCell>
        <mxCell id="fQKOkukqt4vZ22EfXZ8V-27" value="" style="endArrow=none;html=1;rounded=0;exitX=0.5;exitY=0;exitDx=0;exitDy=0;entryX=0.5;entryY=1;entryDx=0;entryDy=0;" parent="1" source="fQKOkukqt4vZ22EfXZ8V-20" target="fQKOkukqt4vZ22EfXZ8V-13" edge="1">
          <mxGeometry width="50" height="50" relative="1" as="geometry">
            <mxPoint x="250" y="280" as="sourcePoint" />
            <mxPoint x="300" y="230" as="targetPoint" />
          </mxGeometry>
        </mxCell>
        <mxCell id="fQKOkukqt4vZ22EfXZ8V-28" value="" style="endArrow=none;html=1;rounded=0;exitX=0.5;exitY=0;exitDx=0;exitDy=0;entryX=0.75;entryY=1;entryDx=0;entryDy=0;" parent="1" target="fQKOkukqt4vZ22EfXZ8V-13" edge="1">
          <mxGeometry width="50" height="50" relative="1" as="geometry">
            <mxPoint x="122.5" y="320" as="sourcePoint" />
            <mxPoint x="310" y="240" as="targetPoint" />
          </mxGeometry>
        </mxCell>
        <mxCell id="fQKOkukqt4vZ22EfXZ8V-29" value="" style="endArrow=none;html=1;rounded=0;exitX=0;exitY=0.5;exitDx=0;exitDy=0;entryX=1;entryY=0.5;entryDx=0;entryDy=0;" parent="1" source="fQKOkukqt4vZ22EfXZ8V-12" target="fQKOkukqt4vZ22EfXZ8V-13" edge="1">
          <mxGeometry width="50" height="50" relative="1" as="geometry">
            <mxPoint x="148" y="410" as="sourcePoint" />
            <mxPoint x="170" y="495" as="targetPoint" />
          </mxGeometry>
        </mxCell>
        <mxCell id="fQKOkukqt4vZ22EfXZ8V-30" value="" style="endArrow=none;html=1;rounded=0;exitX=0.5;exitY=0;exitDx=0;exitDy=0;entryX=1;entryY=0.5;entryDx=0;entryDy=0;" parent="1" source="fQKOkukqt4vZ22EfXZ8V-1" target="fQKOkukqt4vZ22EfXZ8V-12" edge="1">
          <mxGeometry width="50" height="50" relative="1" as="geometry">
            <mxPoint x="158" y="420" as="sourcePoint" />
            <mxPoint x="180" y="505" as="targetPoint" />
            <Array as="points">
              <mxPoint x="570" y="290" />
            </Array>
          </mxGeometry>
        </mxCell>
        <mxCell id="fQKOkukqt4vZ22EfXZ8V-35" value="targetsNode" style="rhombus;whiteSpace=wrap;html=1;" parent="1" vertex="1">
          <mxGeometry x="290" y="90" width="80" height="80" as="geometry" />
        </mxCell>
        <mxCell id="fQKOkukqt4vZ22EfXZ8V-36" value="" style="endArrow=none;html=1;rounded=0;exitX=1;exitY=0;exitDx=0;exitDy=0;entryX=0;entryY=0.5;entryDx=0;entryDy=0;" parent="1" source="fQKOkukqt4vZ22EfXZ8V-13" target="fQKOkukqt4vZ22EfXZ8V-35" edge="1">
          <mxGeometry width="50" height="50" relative="1" as="geometry">
            <mxPoint x="150" y="150" as="sourcePoint" />
            <mxPoint x="200" y="100" as="targetPoint" />
          </mxGeometry>
        </mxCell>
        <mxCell id="fQKOkukqt4vZ22EfXZ8V-37" value="node" style="rounded=0;whiteSpace=wrap;html=1;" parent="1" vertex="1">
          <mxGeometry x="538" y="160" width="120" height="60" as="geometry" />
        </mxCell>
        <mxCell id="fQKOkukqt4vZ22EfXZ8V-38" value="status" style="ellipse;whiteSpace=wrap;html=1;" parent="1" vertex="1">
          <mxGeometry x="710" y="245" width="75" height="50" as="geometry" />
        </mxCell>
        <mxCell id="fQKOkukqt4vZ22EfXZ8V-39" value="nodeId" style="ellipse;whiteSpace=wrap;html=1;" parent="1" vertex="1">
          <mxGeometry x="445" y="105" width="75" height="50" as="geometry" />
        </mxCell>
        <mxCell id="fQKOkukqt4vZ22EfXZ8V-40" value="fqdn" style="ellipse;whiteSpace=wrap;html=1;" parent="1" vertex="1">
          <mxGeometry x="560" y="70" width="75" height="50" as="geometry" />
        </mxCell>
        <mxCell id="fQKOkukqt4vZ22EfXZ8V-41" value="region" style="ellipse;whiteSpace=wrap;html=1;" parent="1" vertex="1">
          <mxGeometry x="658" y="90" width="75" height="50" as="geometry" />
        </mxCell>
        <mxCell id="fQKOkukqt4vZ22EfXZ8V-42" value="provider" style="ellipse;whiteSpace=wrap;html=1;" parent="1" vertex="1">
          <mxGeometry x="710" y="160" width="75" height="50" as="geometry" />
        </mxCell>
        <mxCell id="fQKOkukqt4vZ22EfXZ8V-43" value="" style="endArrow=none;html=1;rounded=0;entryX=0.939;entryY=0.738;entryDx=0;entryDy=0;entryPerimeter=0;exitX=0;exitY=0;exitDx=0;exitDy=0;" parent="1" source="fQKOkukqt4vZ22EfXZ8V-37" target="fQKOkukqt4vZ22EfXZ8V-39" edge="1">
          <mxGeometry width="50" height="50" relative="1" as="geometry">
            <mxPoint x="610" y="330" as="sourcePoint" />
            <mxPoint x="660" y="280" as="targetPoint" />
          </mxGeometry>
        </mxCell>
        <mxCell id="fQKOkukqt4vZ22EfXZ8V-44" value="" style="endArrow=none;html=1;rounded=0;entryX=1;entryY=1;entryDx=0;entryDy=0;exitX=0;exitY=0.5;exitDx=0;exitDy=0;" parent="1" source="fQKOkukqt4vZ22EfXZ8V-38" target="fQKOkukqt4vZ22EfXZ8V-37" edge="1">
          <mxGeometry width="50" height="50" relative="1" as="geometry">
            <mxPoint x="548" y="170" as="sourcePoint" />
            <mxPoint x="525" y="152" as="targetPoint" />
          </mxGeometry>
        </mxCell>
        <mxCell id="fQKOkukqt4vZ22EfXZ8V-45" value="" style="endArrow=none;html=1;rounded=0;entryX=1;entryY=0.5;entryDx=0;entryDy=0;exitX=0;exitY=0.5;exitDx=0;exitDy=0;" parent="1" source="fQKOkukqt4vZ22EfXZ8V-42" target="fQKOkukqt4vZ22EfXZ8V-37" edge="1">
          <mxGeometry width="50" height="50" relative="1" as="geometry">
            <mxPoint x="558" y="180" as="sourcePoint" />
            <mxPoint x="535" y="162" as="targetPoint" />
          </mxGeometry>
        </mxCell>
        <mxCell id="fQKOkukqt4vZ22EfXZ8V-46" value="" style="endArrow=none;html=1;rounded=0;entryX=0.5;entryY=1;entryDx=0;entryDy=0;exitX=0.5;exitY=0;exitDx=0;exitDy=0;" parent="1" source="fQKOkukqt4vZ22EfXZ8V-37" target="fQKOkukqt4vZ22EfXZ8V-40" edge="1">
          <mxGeometry width="50" height="50" relative="1" as="geometry">
            <mxPoint x="568" y="190" as="sourcePoint" />
            <mxPoint x="545" y="172" as="targetPoint" />
          </mxGeometry>
        </mxCell>
        <mxCell id="fQKOkukqt4vZ22EfXZ8V-47" value="" style="endArrow=none;html=1;rounded=0;entryX=0.5;entryY=1;entryDx=0;entryDy=0;exitX=1;exitY=0;exitDx=0;exitDy=0;" parent="1" source="fQKOkukqt4vZ22EfXZ8V-37" target="fQKOkukqt4vZ22EfXZ8V-41" edge="1">
          <mxGeometry width="50" height="50" relative="1" as="geometry">
            <mxPoint x="578" y="200" as="sourcePoint" />
            <mxPoint x="555" y="182" as="targetPoint" />
          </mxGeometry>
        </mxCell>
        <mxCell id="fQKOkukqt4vZ22EfXZ8V-48" value="" style="endArrow=none;html=1;rounded=0;exitX=1;exitY=0.5;exitDx=0;exitDy=0;entryX=0;entryY=1;entryDx=0;entryDy=0;" parent="1" source="fQKOkukqt4vZ22EfXZ8V-35" target="fQKOkukqt4vZ22EfXZ8V-37" edge="1">
          <mxGeometry width="50" height="50" relative="1" as="geometry">
            <mxPoint x="440" y="320" as="sourcePoint" />
            <mxPoint x="490" y="270" as="targetPoint" />
          </mxGeometry>
        </mxCell>
        <mxCell id="fQKOkukqt4vZ22EfXZ8V-49" value="requests&lt;div&gt;Stock&lt;/div&gt;" style="rhombus;whiteSpace=wrap;html=1;" parent="1" vertex="1">
          <mxGeometry x="578" y="650" width="80" height="80" as="geometry" />
        </mxCell>
        <mxCell id="fQKOkukqt4vZ22EfXZ8V-50" value="stockList" style="rounded=0;whiteSpace=wrap;html=1;" parent="1" vertex="1">
          <mxGeometry x="10" y="480" width="120" height="60" as="geometry" />
        </mxCell>
        <mxCell id="fQKOkukqt4vZ22EfXZ8V-51" value="lastUpdated" style="ellipse;whiteSpace=wrap;html=1;" parent="1" vertex="1">
          <mxGeometry x="-90" y="420" width="75" height="50" as="geometry" />
        </mxCell>
        <mxCell id="fQKOkukqt4vZ22EfXZ8V-53" value="stockType" style="ellipse;whiteSpace=wrap;html=1;" parent="1" vertex="1">
          <mxGeometry x="-110" y="480" width="75" height="50" as="geometry" />
        </mxCell>
        <mxCell id="fQKOkukqt4vZ22EfXZ8V-57" value="" style="endArrow=none;html=1;rounded=0;entryX=0;entryY=0.5;entryDx=0;entryDy=0;exitX=1;exitY=0.5;exitDx=0;exitDy=0;" parent="1" source="fQKOkukqt4vZ22EfXZ8V-75" target="fQKOkukqt4vZ22EfXZ8V-49" edge="1">
          <mxGeometry width="50" height="50" relative="1" as="geometry">
            <mxPoint x="290" y="720" as="sourcePoint" />
            <mxPoint x="330" y="630" as="targetPoint" />
          </mxGeometry>
        </mxCell>
        <mxCell id="fQKOkukqt4vZ22EfXZ8V-59" value="" style="endArrow=none;html=1;rounded=0;entryX=0;entryY=0;entryDx=0;entryDy=0;exitX=1;exitY=1;exitDx=0;exitDy=0;" parent="1" source="fQKOkukqt4vZ22EfXZ8V-51" target="fQKOkukqt4vZ22EfXZ8V-50" edge="1">
          <mxGeometry width="50" height="50" relative="1" as="geometry">
            <mxPoint x="-5" y="430" as="sourcePoint" />
            <mxPoint x="32" y="470" as="targetPoint" />
          </mxGeometry>
        </mxCell>
        <mxCell id="fQKOkukqt4vZ22EfXZ8V-64" value="" style="endArrow=none;html=1;rounded=0;entryX=0;entryY=0.5;entryDx=0;entryDy=0;exitX=1;exitY=0.5;exitDx=0;exitDy=0;" parent="1" source="fQKOkukqt4vZ22EfXZ8V-53" target="fQKOkukqt4vZ22EfXZ8V-50" edge="1">
          <mxGeometry width="50" height="50" relative="1" as="geometry">
            <mxPoint x="140" y="520" as="sourcePoint" />
            <mxPoint x="240" y="555" as="targetPoint" />
          </mxGeometry>
        </mxCell>
        <mxCell id="fQKOkukqt4vZ22EfXZ8V-70" value="" style="endArrow=none;html=1;rounded=0;entryX=0.5;entryY=1;entryDx=0;entryDy=0;exitX=0.5;exitY=0;exitDx=0;exitDy=0;" parent="1" source="fQKOkukqt4vZ22EfXZ8V-49" target="fQKOkukqt4vZ22EfXZ8V-1" edge="1">
          <mxGeometry width="50" height="50" relative="1" as="geometry">
            <mxPoint x="535" y="580" as="sourcePoint" />
            <mxPoint x="700" y="610" as="targetPoint" />
          </mxGeometry>
        </mxCell>
        <mxCell id="fQKOkukqt4vZ22EfXZ8V-75" value="stockRequest" style="rounded=0;whiteSpace=wrap;html=1;" parent="1" vertex="1">
          <mxGeometry x="380" y="700" width="120" height="60" as="geometry" />
        </mxCell>
        <mxCell id="fQKOkukqt4vZ22EfXZ8V-78" value="userId" style="ellipse;whiteSpace=wrap;html=1;" parent="1" vertex="1">
          <mxGeometry x="445" y="600" width="75" height="50" as="geometry" />
        </mxCell>
        <mxCell id="fQKOkukqt4vZ22EfXZ8V-79" value="requestId" style="ellipse;whiteSpace=wrap;html=1;" parent="1" vertex="1">
          <mxGeometry x="360" y="600" width="75" height="50" as="geometry" />
        </mxCell>
        <mxCell id="fQKOkukqt4vZ22EfXZ8V-80" value="requestedAt" style="ellipse;whiteSpace=wrap;html=1;" parent="1" vertex="1">
          <mxGeometry x="450" y="790" width="75" height="50" as="geometry" />
        </mxCell>
        <mxCell id="fQKOkukqt4vZ22EfXZ8V-81" value="" style="endArrow=none;html=1;rounded=0;entryX=0.5;entryY=0;entryDx=0;entryDy=0;exitX=0.75;exitY=1;exitDx=0;exitDy=0;" parent="1" source="fQKOkukqt4vZ22EfXZ8V-75" target="fQKOkukqt4vZ22EfXZ8V-80" edge="1">
          <mxGeometry width="50" height="50" relative="1" as="geometry">
            <mxPoint x="280" y="780" as="sourcePoint" />
            <mxPoint x="330" y="730" as="targetPoint" />
          </mxGeometry>
        </mxCell>
        <mxCell id="fQKOkukqt4vZ22EfXZ8V-82" value="" style="endArrow=none;html=1;rounded=0;entryX=0.5;entryY=1;entryDx=0;entryDy=0;exitX=0.628;exitY=0.018;exitDx=0;exitDy=0;exitPerimeter=0;" parent="1" source="fQKOkukqt4vZ22EfXZ8V-75" target="fQKOkukqt4vZ22EfXZ8V-78" edge="1">
          <mxGeometry width="50" height="50" relative="1" as="geometry">
            <mxPoint x="330" y="700" as="sourcePoint" />
            <mxPoint x="380" y="650" as="targetPoint" />
          </mxGeometry>
        </mxCell>
        <mxCell id="fQKOkukqt4vZ22EfXZ8V-83" value="" style="endArrow=none;html=1;rounded=0;entryX=0.5;entryY=1;entryDx=0;entryDy=0;exitX=0.25;exitY=0;exitDx=0;exitDy=0;" parent="1" source="fQKOkukqt4vZ22EfXZ8V-75" target="fQKOkukqt4vZ22EfXZ8V-79" edge="1">
          <mxGeometry width="50" height="50" relative="1" as="geometry">
            <mxPoint x="316" y="711" as="sourcePoint" />
            <mxPoint x="344" y="660" as="targetPoint" />
          </mxGeometry>
        </mxCell>
        <mxCell id="fQKOkukqt4vZ22EfXZ8V-84" value="getsStock&lt;div&gt;List&lt;/div&gt;" style="rhombus;whiteSpace=wrap;html=1;" parent="1" vertex="1">
          <mxGeometry x="200" y="620" width="80" height="80" as="geometry" />
        </mxCell>
        <mxCell id="fQKOkukqt4vZ22EfXZ8V-85" value="" style="endArrow=none;html=1;rounded=0;exitX=1;exitY=1;exitDx=0;exitDy=0;entryX=0.5;entryY=0;entryDx=0;entryDy=0;" parent="1" source="fQKOkukqt4vZ22EfXZ8V-50" target="fQKOkukqt4vZ22EfXZ8V-84" edge="1">
          <mxGeometry width="50" height="50" relative="1" as="geometry">
            <mxPoint x="250" y="560" as="sourcePoint" />
            <mxPoint x="300" y="510" as="targetPoint" />
          </mxGeometry>
        </mxCell>
        <mxCell id="fQKOkukqt4vZ22EfXZ8V-86" value="" style="endArrow=none;html=1;rounded=0;entryX=0;entryY=0.5;entryDx=0;entryDy=0;exitX=0.5;exitY=1;exitDx=0;exitDy=0;" parent="1" source="fQKOkukqt4vZ22EfXZ8V-84" target="fQKOkukqt4vZ22EfXZ8V-75" edge="1">
          <mxGeometry width="50" height="50" relative="1" as="geometry">
            <mxPoint x="270" y="780" as="sourcePoint" />
            <mxPoint x="320" y="730" as="targetPoint" />
          </mxGeometry>
        </mxCell>
        <mxCell id="1h-XwmCrbbzadRgaeJtr-2" value="stockData" style="ellipse;whiteSpace=wrap;html=1;" vertex="1" parent="1">
          <mxGeometry x="339" y="790" width="75" height="50" as="geometry" />
        </mxCell>
        <mxCell id="1h-XwmCrbbzadRgaeJtr-3" value="" style="endArrow=none;html=1;rounded=0;entryX=0.5;entryY=0;entryDx=0;entryDy=0;exitX=0.25;exitY=1;exitDx=0;exitDy=0;" edge="1" parent="1" source="fQKOkukqt4vZ22EfXZ8V-75" target="1h-XwmCrbbzadRgaeJtr-2">
          <mxGeometry width="50" height="50" relative="1" as="geometry">
            <mxPoint x="480" y="770" as="sourcePoint" />
            <mxPoint x="498" y="800" as="targetPoint" />
          </mxGeometry>
        </mxCell>
        <mxCell id="1h-XwmCrbbzadRgaeJtr-4" value="stockListId" style="ellipse;whiteSpace=wrap;html=1;" vertex="1" parent="1">
          <mxGeometry x="-90" y="560" width="75" height="50" as="geometry" />
        </mxCell>
        <mxCell id="1h-XwmCrbbzadRgaeJtr-5" value="" style="endArrow=none;html=1;rounded=0;entryX=0;entryY=1;entryDx=0;entryDy=0;exitX=1;exitY=0;exitDx=0;exitDy=0;" edge="1" parent="1" source="1h-XwmCrbbzadRgaeJtr-4" target="fQKOkukqt4vZ22EfXZ8V-50">
          <mxGeometry width="50" height="50" relative="1" as="geometry">
            <mxPoint x="30" y="660" as="sourcePoint" />
            <mxPoint x="80" y="610" as="targetPoint" />
          </mxGeometry>
        </mxCell>
        <mxCell id="1h-XwmCrbbzadRgaeJtr-6" value="stockId" style="ellipse;whiteSpace=wrap;html=1;" vertex="1" parent="1">
          <mxGeometry x="292.5" y="650" width="75" height="50" as="geometry" />
        </mxCell>
        <mxCell id="1h-XwmCrbbzadRgaeJtr-7" value="" style="endArrow=none;html=1;rounded=0;entryX=0;entryY=0;entryDx=0;entryDy=0;exitX=1;exitY=1;exitDx=0;exitDy=0;" edge="1" parent="1" source="1h-XwmCrbbzadRgaeJtr-6" target="fQKOkukqt4vZ22EfXZ8V-75">
          <mxGeometry width="50" height="50" relative="1" as="geometry">
            <mxPoint x="320" y="620" as="sourcePoint" />
            <mxPoint x="370" y="570" as="targetPoint" />
          </mxGeometry>
        </mxCell>
      </root>
    </mxGraphModel>
  </diagram>
</mxfile>
